<?xml version="1.0" standalone="no"?>
<!DOCTYPE svg PUBLIC "-//W3C//DTD SVG 20010904//EN"
 "http://www.w3.org/TR/2001/REC-SVG-20010904/DTD/svg10.dtd">
<svg version="1.0" xmlns="http://www.w3.org/2000/svg"
 width="200.000000pt" height="200.000000pt" viewBox="0 0 200.000000 200.000000"
 preserveAspectRatio="xMidYMid meet">

<g transform="translate(0.000000,200.000000) scale(0.100000,-0.100000)"
fill="#000000" stroke="none">
<path d="M935 1981 c-16 -10 -39 -28 -50 -41 -19 -21 -20 -38 -23 -544 l-3
-522 23 -35 c61 -90 182 -88 239 4 19 31 19 50 17 554 l-3 521 -25 27 c-53 57
-120 70 -175 36z"/>
<path d="M437 1629 c-62 -41 -158 -147 -212 -234 -92 -147 -135 -302 -135
-484 0 -241 84 -451 248 -623 186 -195 439 -298 697 -284 248 13 431 93 606
266 184 182 269 387 269 646 0 233 -79 436 -237 612 -83 93 -143 132 -202 132
-81 0 -141 -60 -141 -140 0 -45 20 -76 102 -156 40 -40 88 -97 106 -127 171
-285 90 -653 -185 -841 -103 -70 -194 -99 -329 -104 -194 -7 -332 47 -470 184
-202 200 -240 513 -92 762 18 30 67 90 109 131 85 85 99 106 99 151 0 121
-126 180 -233 109z"/>
</g>
</svg>
