<?xml version="1.0" encoding="UTF-8" standalone="no"?>
<svg
   xmlns:dc="http://purl.org/dc/elements/1.1/"
   xmlns:cc="http://creativecommons.org/ns#"
   xmlns:rdf="http://www.w3.org/1999/02/22-rdf-syntax-ns#"
   xmlns:svg="http://www.w3.org/2000/svg"
   xmlns="http://www.w3.org/2000/svg"
   xmlns:sodipodi="http://sodipodi.sourceforge.net/DTD/sodipodi-0.dtd"
   xmlns:inkscape="http://www.inkscape.org/namespaces/inkscape"
   inkscape:version="1.0 (4035a4fb49, 2020-05-01)"
   sodipodi:docname="powerOn.svg"
   id="svg8"
   preserveAspectRatio="xMidYMid meet"
   viewBox="0 0 200.000000 200.000000"
   height="200.000000pt"
   width="200.000000pt"
   version="1.0">
  <metadata
     id="metadata14">
    <rdf:RDF>
      <cc:Work
         rdf:about="">
        <dc:format>image/svg+xml</dc:format>
        <dc:type
           rdf:resource="http://purl.org/dc/dcmitype/StillImage" />
        <dc:title></dc:title>
      </cc:Work>
    </rdf:RDF>
  </metadata>
  <defs
     id="defs12" />
  <sodipodi:namedview
     inkscape:current-layer="svg8"
     inkscape:window-maximized="0"
     inkscape:window-y="183"
     inkscape:window-x="1976"
     inkscape:cy="133.33333"
     inkscape:cx="133.33333"
     inkscape:zoom="0.93456954"
     showgrid="false"
     id="namedview10"
     inkscape:window-height="480"
     inkscape:window-width="776"
     inkscape:pageshadow="2"
     inkscape:pageopacity="0"
     guidetolerance="10"
     gridtolerance="10"
     objecttolerance="10"
     borderopacity="1"
     bordercolor="#666666"
     pagecolor="#ffffff" />
  <g
     style="fill:#aa0000"
     id="g6"
     stroke="none"
     fill="#000000"
     transform="translate(0.000000,200.000000) scale(0.100000,-0.100000)">
    <path
       style="fill:#aa0000"
       id="path2"
       d="M935 1981 c-16 -10 -39 -28 -50 -41 -19 -21 -20 -38 -23 -544 l-3 -522 23 -35 c61 -90 182 -88 239 4 19 31 19 50 17 554 l-3 521 -25 27 c-53 57 -120 70 -175 36z" />
    <path
       style="fill:#aa0000"
       id="path4"
       d="M437 1629 c-62 -41 -158 -147 -212 -234 -92 -147 -135 -302 -135 -484 0 -241 84 -451 248 -623 186 -195 439 -298 697 -284 248 13 431 93 606 266 184 182 269 387 269 646 0 233 -79 436 -237 612 -83 93 -143 132 -202 132 -81 0 -141 -60 -141 -140 0 -45 20 -76 102 -156 40 -40 88 -97 106 -127 171 -285 90 -653 -185 -841 -103 -70 -194 -99 -329 -104 -194 -7 -332 47 -470 184 -202 200 -240 513 -92 762 18 30 67 90 109 131 85 85 99 106 99 151 0 121 -126 180 -233 109z" />
  </g>
</svg>
